# xmcd
#
# Track frame offsets:
#  150
#  10932
#  21781
#  32135
#  43930
#  60386
#  68532
#  83291
#  103196
#  115001
#  129554
#  139466
#  154435
#
# Disc length: 2230 seconds
#
# Revision: 0
# Processed by: cddbd v1.5.1PL0 Copyright (c) Steve Scherf et al.
# Submitted via: Collectorz.com_Music_Collector 6.9
#
DISCID=a808b40d
DTITLE=Hat Fitz - Stray Hat
DYEAR=2005
DGENRE=Blues -  Blues Acoustic
TTITLE0=Stray Hat
TTITLE1=Kansas Blooze
TTITLE2=Pay Day
TTITLE3=Hat Man'z On His Way
TTITLE4=Gymea Bay
TTITLE5=Jim Conner'z
TTITLE6=Liquor Store
TTITLE7=Hard Time Killing Floor
TTITLE8=Little Tom Bob
TTITLE9=Candy Stand
TTITLE10=14th Day
TTITLE11=Daniel Dung Punch
TTITLE12=Stagger-Lee
EXTD=
EXTT0=
EXTT1=
EXTT2=
EXTT3=
EXTT4=
EXTT5=
EXTT6=
EXTT7=
EXTT8=
EXTT9=
EXTT10=
EXTT11=
EXTT12=
PLAYORDER=
